# Dungeon-deco low-poly lamp (OBJ)
# Exports a single mesh composed from rings: base -> stem -> shade -> top cap
# Designed for easy import into Blender. No external textures required.
mtllib lamp.mtl
o dungeon_deco_lamp

# Vertex list (v x y z)
v 0.50000 0.00000 0.00000
v 0.46194 0.00000 0.19134
v 0.35355 0.00000 0.35355
v 0.19134 0.00000 0.46194
v 0.00000 0.00000 0.50000
v -0.19134 0.00000 0.46194
v -0.35355 0.00000 0.35355
v -0.46194 0.00000 0.19134
v -0.50000 0.00000 0.00000
v -0.46194 0.00000 -0.19134
v -0.35355 0.00000 -0.35355
v -0.19134 0.00000 -0.46194
v 0.00000 0.00000 -0.50000
v 0.19134 0.00000 -0.46194
v 0.35355 0.00000 -0.35355
v 0.46194 0.00000 -0.19134

v 0.20000 0.10000 0.00000
v 0.18478 0.10000 0.07654
v 0.14142 0.10000 0.14142
v 0.07654 0.10000 0.18478
v 0.00000 0.10000 0.20000
v -0.07654 0.10000 0.18478
v -0.14142 0.10000 0.14142
v -0.18478 0.10000 0.07654
v -0.20000 0.10000 0.00000
v -0.18478 0.10000 -0.07654
v -0.14142 0.10000 -0.14142
v -0.07654 0.10000 -0.18478
v 0.00000 0.10000 -0.20000
v 0.07654 0.10000 -0.18478
v 0.14142 0.10000 -0.14142
v 0.18478 0.10000 -0.07654

v 0.05000 0.10000 0.00000
v 0.04619 0.10000 0.01913
v 0.03536 0.10000 0.03536
v 0.01913 0.10000 0.04619
v 0.00000 0.10000 0.05000
v -0.01913 0.10000 0.04619
v -0.03536 0.10000 0.03536
v -0.04619 0.10000 0.01913

v 0.05000 1.00000 0.00000
v 0.04619 1.00000 0.01913
v 0.03536 1.00000 0.03536
v 0.01913 1.00000 0.04619
v 0.00000 1.00000 0.05000
v -0.01913 1.00000 0.04619
v -0.03536 1.00000 0.03536
v -0.04619 1.00000 0.01913

v 0.60000 1.00000 0.00000
v 0.55433 1.00000 0.22961
v 0.42426 1.00000 0.42426
v 0.22961 1.00000 0.55433
v 0.00000 1.00000 0.60000
v -0.22961 1.00000 0.55433
v -0.42426 1.00000 0.42426
v -0.55433 1.00000 0.22961
v -0.60000 1.00000 0.00000
v -0.55433 1.00000 -0.22961
v -0.42426 1.00000 -0.42426
v -0.22961 1.00000 -0.55433
v 0.00000 1.00000 -0.60000
v 0.22961 1.00000 -0.55433
v 0.42426 1.00000 -0.42426
v 0.55433 1.00000 -0.22961

v 0.15000 1.50000 0.00000
v 0.13858 1.50000 0.05740
v 0.10607 1.50000 0.10607
v 0.05740 1.50000 0.13858
v 0.00000 1.50000 0.15000
v -0.05740 1.50000 0.13858
v -0.10607 1.50000 0.10607
v -0.13858 1.50000 0.05740
v -0.15000 1.50000 0.00000
v -0.13858 1.50000 -0.05740
v -0.10607 1.50000 -0.10607
v -0.05740 1.50000 -0.13858
v 0.00000 1.50000 -0.15000
v 0.05740 1.50000 -0.13858
v 0.10607 1.50000 -0.10607
v 0.13858 1.50000 -0.05740

v 0.00000 1.60000 0.00000

# Face groups and material assignments
g base
usemtl base_material
f 1 17 18
f 1 18 2
f 2 18 19
f 2 19 3
f 3 19 20
f 3 20 4
f 4 20 21
f 4 21 5
f 5 21 22
f 5 22 6
f 6 22 23
f 6 23 7
f 7 23 24
f 7 24 8
f 8 24 25
f 8 25 9
f 9 25 26
f 9 26 10
f 10 26 27
f 10 27 11
f 11 27 28
f 11 28 12
f 12 28 29
f 12 29 13
f 13 29 30
f 13 30 14
f 14 30 31
f 14 31 15
f 15 31 32
f 15 32 16
f 16 32 17
f 16 17 1

g base_top_to_stem
usemtl base_material
f 17 33 34
f 17 34 18
f 18 34 35
f 18 35 19
f 19 35 36
f 19 36 20
f 20 36 37
f 20 37 21
f 21 37 38
f 21 38 22
f 22 38 39
f 22 39 23
f 23 39 40
f 23 40 24
f 24 40 33
f 24 33 25
f 25 33 34
f 25 34 26
f 26 34 35
f 26 35 27
f 27 35 36
f 27 36 28
f 28 36 37
f 28 37 29
f 29 37 38
f 29 38 30
f 30 38 39
f 30 39 31
f 31 39 40
f 31 40 32
f 32 40 33
f 32 33 17

g stem
usemtl metal_material
f 33 41 42
f 33 42 34
f 34 42 43
f 34 43 35
f 35 43 44
f 35 44 36
f 36 44 45
f 36 45 37
f 37 45 46
f 37 46 38
f 38 46 47
f 38 47 39
f 39 47 48
f 39 48 40
f 40 48 41
f 40 41 33

g stem_to_shade
usemtl metal_material
f 41 49 50
f 41 50 42
f 42 50 51
f 42 51 43
f 43 51 52
f 43 52 44
f 44 52 53
f 44 53 45
f 45 53 54
f 45 54 46
f 46 54 55
f 46 55 47
f 47 55 56
f 47 56 48
f 48 56 49
f 48 49 41

g shade
usemtl shade_material
f 49 65 66
f 49 66 50
f 50 66 67
f 50 67 51
f 51 67 68
f 51 68 52
f 52 68 69
f 52 69 53
f 53 69 70
f 53 70 54
f 54 70 71
f 54 71 55
f 55 71 72
f 55 72 56
f 56 72 73
f 56 73 57
f 57 73 74
f 57 74 58
f 58 74 75
f 58 75 59
f 59 75 76
f 59 76 60
f 60 76 77
f 60 77 61
f 61 77 78
f 61 78 62
f 62 78 79
f 62 79 63
f 63 79 80
f 63 80 64
f 64 80 65
f 64 65 49

g shade_top_cap
usemtl shade_material
f 65 66 81
f 66 67 81
f 67 68 81
f 68 69 81
f 69 70 81
f 70 71 81
f 71 72 81
f 72 73 81
f 73 74 81
f 74 75 81
f 75 76 81
f 76 77 81
f 77 78 81
f 78 79 81
f 79 80 81
f 80 65 81